<?xml version="1.0" encoding="utf-8"?>
<!-- Generator: Adobe Illustrator 16.0.0, SVG Export Plug-In . SVG Version: 6.00 Build 0)  -->
<!DOCTYPE svg PUBLIC "-//W3C//DTD SVG 1.1//EN" "http://www.w3.org/Graphics/SVG/1.1/DTD/svg11.dtd">
<svg version="1.1" xmlns="http://www.w3.org/2000/svg" xmlns:xlink="http://www.w3.org/1999/xlink" x="0px" y="0px" width="300px"
	 height="300px" viewBox="0 0 300 300" enable-background="new 0 0 300 300" xml:space="preserve">
<g id="Layer_2">
	<rect fill="#F9F9F9" width="300" height="300"/>
</g>
<g id="Layer_1">
	<path d="M152.932,275.295h-26.777V64.059L51.771,275.295H25V24.723h26.774L51.58,195.228l58.995-170.523l42.357,0.019V275.295z"/>
	<path d="M248.604,95.093l-0.658-12.058l-0.645-5.54l-2.606-9.449c-1.736-4.777-4.355-8.906-7.822-12.383
		c-4.561-3.261-9.352-4.889-14.339-4.889c-12.831,0-21.343,2.827-25.584,8.475c-4.226,5.653-6.354,14.45-6.354,26.392
		c0,10.429,2.989,19.719,8.976,27.864c5.963,8.146,16.77,17.757,32.409,28.838c11.739,8.468,19.78,14.88,24.122,19.223
		c2.815,2.605,5.32,5.335,7.49,8.149l4.893,7.499c2.815,5,4.554,10.32,5.205,15.966c0.658,3.046,1.034,6.028,1.149,8.96
		c0.102,2.931,0.16,6.246,0.16,9.937v3.59l-0.651,7.499l-1.954,8.786c-2.173,8.055-5.219,14.786-9.134,20.207
		c-4.77,6.745-10.64,12.281-17.588,16.623c-4.125,3.033-7.389,4.676-9.777,4.887l-7.824,1.628h-7.164
		c-14.339,0-25.911-3.148-34.711-9.445c-8.786-6.304-15.105-13.854-18.897-22.652c-3.801-8.802-6.246-17.002-7.34-24.601
		l-1.294-9.127v-13.027h26.394c0,19.982,2.874,33.937,8.643,41.861c5.754,7.939,14.83,11.898,27.206,11.898
		c9.553,0,16.298-3.141,20.207-9.452l4.226-7.158l1.311-3.915c1.296-3.909,1.954-8.148,1.954-12.709l-0.658-9.778l-1.622-9.118
		c-2.604-6.521-4.675-10.864-6.188-13.043c-3.481-4.118-7.505-8.142-12.065-12.057l-8.467-6.515l-12.385-8.8
		c-16.507-12.384-28.131-23.461-34.876-33.235c-3.251-4.994-5.652-10.643-7.158-16.947c-1.527-6.296-2.286-13.14-2.286-20.529V74.89
		l1.968-11.081c3.713-10.426,6.889-17.052,9.503-19.875c5.464-6.079,11.58-10.755,18.354-14.015
		c4.371-2.167,8.526-3.586,12.455-4.237l15.415-0.978c9.388,0,18.565,2.396,27.525,7.168c8.084,5.432,13.765,11.732,17.044,18.901
		c3.72,6.959,6.123,13.799,7.215,20.529l1.954,6.521l0.335,6.517L275,95.093H248.604z"/>
</g>
</svg>
