<?xml version="1.0" encoding="utf-8"?>
<!-- Generator: Adobe Illustrator 16.0.0, SVG Export Plug-In . SVG Version: 6.00 Build 0)  -->
<!DOCTYPE svg PUBLIC "-//W3C//DTD SVG 1.1//EN" "http://www.w3.org/Graphics/SVG/1.1/DTD/svg11.dtd">
<svg version="1.1" id="Layer_1" xmlns="http://www.w3.org/2000/svg" xmlns:xlink="http://www.w3.org/1999/xlink" x="0px" y="0px"
	 width="23px" height="23px" viewBox="38.5 38.5 23 23" enable-background="new 38.5 38.5 23 23" xml:space="preserve">
<g>
	<path d="M61,53.766c0,1.305-0.425,2.321-1.275,3.053c-0.852,0.729-2.049,1.097-3.593,1.097c-0.367,0-0.747-0.037-1.142-0.117
		s-0.777-0.175-1.145-0.293c-0.368-0.111-0.71-0.236-1.026-0.367c-0.314-0.132-0.588-0.259-0.816-0.384l0.605-1.239
		c0.213,0.122,0.458,0.251,0.74,0.382c0.28,0.133,0.585,0.256,0.91,0.371c0.325,0.114,0.655,0.207,0.989,0.277
		c0.334,0.068,0.66,0.104,0.977,0.104c1.001,0,1.818-0.24,2.453-0.725c0.631-0.483,0.949-1.139,0.949-1.966
		c0-0.667-0.171-1.231-0.513-1.688c-0.345-0.458-0.772-0.867-1.28-1.229c-0.511-0.358-1.068-0.692-1.676-1.001
		c-0.608-0.308-1.166-0.655-1.675-1.042c-0.511-0.387-0.938-0.839-1.28-1.359c-0.342-0.519-0.515-1.156-0.515-1.913
		c0-0.545,0.112-1.043,0.337-1.492c0.225-0.448,0.52-0.831,0.884-1.146c0.364-0.318,0.789-0.564,1.273-0.739
		c0.483-0.176,0.98-0.265,1.491-0.265c0.895,0,1.665,0.116,2.308,0.349c0.642,0.232,1.146,0.452,1.518,0.658l-0.581,1.158
		c-0.388-0.212-0.867-0.427-1.438-0.647c-0.571-0.22-1.191-0.329-1.86-0.329c-0.281,0-0.567,0.053-0.857,0.159
		c-0.289,0.104-0.555,0.254-0.791,0.448c-0.237,0.193-0.431,0.436-0.58,0.727c-0.15,0.291-0.224,0.622-0.224,0.991
		c0,0.599,0.166,1.102,0.5,1.508c0.334,0.404,0.754,0.778,1.266,1.122c0.511,0.344,1.059,0.679,1.65,1.005
		c0.588,0.326,1.139,0.692,1.649,1.097c0.507,0.406,0.933,0.882,1.267,1.428S61,52.974,61,53.766z"/>
</g>
<path d="M39,57.6V42.402h1.373v12.639l7.888-12.639h1.742V57.6h-1.372l0.026-13.087L40.481,57.6H39z"/>
</svg>
