<?xml version="1.0" encoding="utf-8"?>
<!-- Generator: Adobe Illustrator 16.0.0, SVG Export Plug-In . SVG Version: 6.00 Build 0)  -->
<!DOCTYPE svg PUBLIC "-//W3C//DTD SVG 1.1//EN" "http://www.w3.org/Graphics/SVG/1.1/DTD/svg11.dtd">
<svg version="1.1" id="Layer_1" xmlns="http://www.w3.org/2000/svg" xmlns:xlink="http://www.w3.org/1999/xlink" x="0px" y="0px"
	 width="192px" height="23px" viewBox="0 0 192 23" enable-background="new 0 0 192 23" xml:space="preserve">
<g>
	<path d="M11.121,20.359L1.664,5.181l0.031,15.179H0.104V2.732h2.02l9.15,14.658V2.732h1.562v17.627H11.121z"/>
	<path d="M28.257,18.186c-1.306,1.674-2.938,2.508-4.896,2.508c-2.224,0-3.947-0.895-5.172-2.689
		c-1.122-1.652-1.683-3.807-1.683-6.459c0-2.733,0.653-4.967,1.958-6.701c1.306-1.714,2.938-2.57,4.896-2.57
		c2.224,0,3.958,0.918,5.202,2.754c1.122,1.673,1.684,3.846,1.684,6.518C30.246,14.26,29.583,16.471,28.257,18.186z M28.165,9.097
		c-0.164-0.999-0.429-1.876-0.796-2.632c-0.897-1.814-2.274-2.722-4.131-2.722c-1.652,0-2.918,0.795-3.795,2.386
		c-0.733,1.347-1.111,3.021-1.132,5.019c0,0.979,0.081,1.911,0.244,2.784c0.185,1,0.46,1.867,0.826,2.604
		c0.878,1.814,2.234,2.721,4.07,2.721c1.672,0,2.948-0.785,3.825-2.355c0.755-1.346,1.132-3.018,1.132-5.018
		C28.409,10.903,28.328,9.975,28.165,9.097z"/>
	<path d="M43.527,20.693l-4.652-8.352c-0.326,0.061-0.622,0.092-0.887,0.092l-2.356-0.031v7.957h-1.714V2.732h4.254
		c1.795,0,3.172,0.459,4.131,1.377c0.918,0.837,1.377,1.969,1.377,3.396c0,1.122-0.356,2.112-1.07,2.969
		c-0.572,0.714-1.276,1.225-2.111,1.53l4.743,8.14L43.527,20.693z M38.172,4.048h-2.571v7.038h2.51c2.55,0,3.825-1.162,3.825-3.487
		C41.936,5.23,40.681,4.048,38.172,4.048z"/>
	<path d="M57.053,19.166c-1,0.797-2.336,1.193-4.009,1.193h-4.896V2.732h4.437c1.551,0,2.806,0.397,3.765,1.193
		c0.958,0.816,1.438,1.897,1.438,3.244c0,1.162-0.307,2.101-0.917,2.814c-0.227,0.286-0.501,0.531-0.827,0.735
		c-0.123,0.081-0.244,0.153-0.367,0.215c-0.122,0.061-0.245,0.111-0.367,0.151c0.734,0.144,1.447,0.541,2.142,1.193
		c0.857,0.855,1.286,1.867,1.286,3.031C58.736,17.002,58.175,18.289,57.053,19.166z M52.37,4.109h-2.51v6.427h3.244
		c1.979,0,2.969-1.103,2.969-3.305C56.073,5.149,54.839,4.109,52.37,4.109z M55.676,12.709c-0.715-0.551-1.52-0.826-2.418-0.826
		H49.86v7.129h3.091c1.205,0,2.153-0.285,2.848-0.857c0.775-0.631,1.163-1.578,1.163-2.844
		C56.962,14.229,56.532,13.361,55.676,12.709z"/>
	<path d="M62.255,20.359V2.732h9.181v1.377h-7.467v6.487h6.335v1.347h-6.335v7.039H72.2v1.377H62.255z"/>
	<path d="M85.175,20.693l-4.651-8.352c-0.326,0.061-0.622,0.092-0.889,0.092l-2.355-0.031v7.957h-1.713V2.732h4.253
		c1.796,0,3.172,0.459,4.131,1.377c0.919,0.837,1.378,1.969,1.378,3.396c0,1.122-0.358,2.112-1.071,2.969
		c-0.571,0.714-1.275,1.225-2.112,1.53l4.744,8.14L85.175,20.693z M79.819,4.048h-2.57v7.038h2.509c2.551,0,3.825-1.162,3.825-3.487
		C83.583,5.23,82.328,4.048,79.819,4.048z"/>
	<path d="M94.508,4.201v16.158h-1.683V4.201h-5.478V2.732h12.697v1.469H94.508z"/>
	<path d="M113.174,20.693c-0.775,0-1.664-0.152-2.662-0.457c-0.795-0.246-1.508-0.539-2.143-0.887l0.705-1.439
		c0.568,0.324,1.211,0.613,1.928,0.857c0.855,0.307,1.609,0.461,2.264,0.461c2.631,0,3.947-1.043,3.947-3.121
		c0-1.021-0.418-1.928-1.256-2.725c-0.324-0.307-0.754-0.623-1.283-0.949c-0.203-0.143-0.447-0.286-0.734-0.429l-0.551-0.337
		c-0.082-0.041-0.145-0.081-0.184-0.123c-0.652-0.346-1.152-0.642-1.5-0.887c-0.512-0.348-0.939-0.693-1.285-1.04
		c-0.838-0.857-1.254-1.878-1.254-3.061c0-1.225,0.477-2.245,1.438-3.061c0.918-0.774,1.988-1.162,3.213-1.162
		c0.918,0,1.816,0.132,2.691,0.397c0.592,0.204,1.176,0.47,1.746,0.796l-0.676,1.346c-0.568-0.326-1.129-0.581-1.682-0.765
		c-0.734-0.245-1.447-0.366-2.141-0.366c-0.715,0-1.348,0.233-1.898,0.703c-0.633,0.53-0.949,1.193-0.949,1.989
		c0,0.897,0.408,1.703,1.225,2.418c0.326,0.285,0.756,0.592,1.285,0.917l1.068,0.643c0.166,0.103,0.301,0.173,0.402,0.215
		c0.588,0.367,1.068,0.673,1.438,0.917c0.51,0.368,0.936,0.746,1.283,1.135c0.816,0.916,1.227,1.988,1.227,3.213
		C118.836,19.094,116.947,20.693,113.174,20.693z"/>
	<path d="M126.912,4.201v16.158h-1.682V4.201h-5.479V2.732h12.699v1.469H126.912z"/>
	<path d="M144.938,20.604l-2.02-6.09h-6.486l-2.082,6.09l-1.59-0.336l6.211-17.535h1.684l5.906,17.504L144.938,20.604z
		 M139.736,4.69l-2.877,8.444h5.631L139.736,4.69z"/>
	<path d="M160.33,20.359l-9.457-15.179l0.031,15.179h-1.59V2.732h2.018l9.15,14.658V2.732h1.561v17.627H160.33z"/>
	<path d="M178.078,19.625c-0.51,0.266-1.215,0.51-2.111,0.734c-1.039,0.244-1.979,0.367-2.814,0.367
		c-2.326,0-4.113-0.723-5.355-2.174c-1.389-1.568-2.08-3.938-2.08-7.099c0-2.795,0.723-5.019,2.172-6.671
		c1.428-1.633,3.336-2.448,5.723-2.448c1.449,0,2.682,0.285,3.703,0.856l-0.58,1.315c-0.98-0.468-2.021-0.703-3.123-0.703
		c-1.715,0-3.123,0.581-4.225,1.744c-1.266,1.347-1.896,3.274-1.896,5.783c0,2.796,0.529,4.856,1.592,6.183
		c0.938,1.184,2.314,1.775,4.129,1.775c0.594,0,1.217-0.061,1.869-0.186l0.764-0.152l0.645-0.184v-6.211h1.59V19.625z"/>
	<path d="M182.057,20.359V2.732h9.182v1.377h-7.469v6.487h6.334v1.347h-6.334v7.039H192v1.377H182.057z"/>
</g>
</svg>
