<?xml version="1.0" encoding="utf-8"?>
<!-- Generator: Adobe Illustrator 16.0.0, SVG Export Plug-In . SVG Version: 6.00 Build 0)  -->
<!DOCTYPE svg PUBLIC "-//W3C//DTD SVG 1.1//EN" "http://www.w3.org/Graphics/SVG/1.1/DTD/svg11.dtd">
<svg version="1.1" id="Layer_1" xmlns="http://www.w3.org/2000/svg" xmlns:xlink="http://www.w3.org/1999/xlink" x="0px" y="0px"
	 width="23px" height="23px" viewBox="138.5 138.5 23 23" enable-background="new 138.5 138.5 23 23" xml:space="preserve">
<g id="Layer_2">
	<rect x="138.5" y="138.5" fill="#F9F9F9" width="23" height="23"/>
</g>
<g id="Layer_1_1_">
	<path d="M150.225,159.605h-2.053v-16.194l-5.703,16.194h-2.053v-19.21h2.053l-0.015,13.072l4.523-13.074l3.247,0.001V159.605
		L150.225,159.605z"/>
	<path d="M157.56,145.791l-0.051-0.924l-0.049-0.425l-0.2-0.725c-0.133-0.366-0.334-0.683-0.6-0.949
		c-0.35-0.25-0.717-0.375-1.1-0.375c-0.983,0-1.636,0.217-1.961,0.65c-0.324,0.433-0.487,1.108-0.487,2.023
		c0,0.799,0.229,1.512,0.688,2.136c0.457,0.625,1.285,1.361,2.484,2.211c0.9,0.649,1.517,1.141,1.85,1.474
		c0.216,0.2,0.407,0.409,0.574,0.625l0.375,0.574c0.216,0.384,0.349,0.792,0.399,1.225c0.05,0.233,0.079,0.462,0.088,0.687
		c0.008,0.225,0.012,0.479,0.012,0.762v0.275l-0.05,0.575l-0.149,0.674c-0.167,0.617-0.4,1.134-0.7,1.549
		c-0.366,0.518-0.816,0.941-1.349,1.274c-0.316,0.232-0.566,0.358-0.75,0.375l-0.6,0.125h-0.549c-1.1,0-1.986-0.242-2.661-0.725
		c-0.674-0.483-1.158-1.062-1.449-1.736s-0.479-1.304-0.563-1.886l-0.1-0.7v-0.999h2.023c0,1.532,0.221,2.603,0.663,3.21
		c0.441,0.608,1.137,0.912,2.086,0.912c0.732,0,1.249-0.241,1.549-0.725l0.324-0.549l0.101-0.301c0.1-0.3,0.149-0.624,0.149-0.974
		l-0.05-0.75l-0.125-0.699c-0.199-0.5-0.358-0.833-0.475-1c-0.267-0.315-0.575-0.624-0.925-0.924l-0.648-0.5l-0.95-0.675
		c-1.266-0.949-2.156-1.798-2.674-2.548c-0.249-0.383-0.433-0.816-0.549-1.299c-0.117-0.482-0.175-1.007-0.175-1.574v-0.924
		l0.15-0.85c0.285-0.799,0.528-1.308,0.729-1.524c0.419-0.466,0.889-0.824,1.407-1.074c0.335-0.167,0.654-0.275,0.955-0.325
		l1.182-0.075c0.72,0,1.424,0.184,2.11,0.549c0.62,0.417,1.056,0.899,1.307,1.449c0.285,0.534,0.47,1.058,0.554,1.574l0.149,0.5
		l0.025,0.5l0.025,0.825H157.56z"/>
</g>
</svg>
